<mxfile host="app.diagrams.net" modified="2024-05-01T16:32:06.664Z" agent="Mozilla/5.0 (Windows NT 10.0; Win64; x64) AppleWebKit/537.36 (KHTML, like Gecko) Chrome/124.0.0.0 Safari/537.36" etag="rYOAiAhZAhKZ-ZQwQQk4" version="24.2.9" type="device">
  <diagram name="Page-1" id="rFObrn94NbEKTqxaNxgj">
    <mxGraphModel dx="1461" dy="652" grid="1" gridSize="10" guides="1" tooltips="1" connect="1" arrows="1" fold="1" page="1" pageScale="1" pageWidth="850" pageHeight="1100" math="0" shadow="0">
      <root>
        <mxCell id="0" />
        <mxCell id="1" parent="0" />
        <mxCell id="LEBW6ZDdR1jyan6_hRrG-2" value=":Doctor" style="shape=umlLifeline;perimeter=lifelinePerimeter;whiteSpace=wrap;html=1;container=1;dropTarget=0;collapsible=0;recursiveResize=0;outlineConnect=0;portConstraint=eastwest;newEdgeStyle={&quot;curved&quot;:0,&quot;rounded&quot;:0};" vertex="1" parent="1">
          <mxGeometry x="100" y="60" width="100" height="360" as="geometry" />
        </mxCell>
        <mxCell id="LEBW6ZDdR1jyan6_hRrG-3" value="" style="html=1;points=[[0,0,0,0,5],[0,1,0,0,-5],[1,0,0,0,5],[1,1,0,0,-5]];perimeter=orthogonalPerimeter;outlineConnect=0;targetShapes=umlLifeline;portConstraint=eastwest;newEdgeStyle={&quot;curved&quot;:0,&quot;rounded&quot;:0};" vertex="1" parent="LEBW6ZDdR1jyan6_hRrG-2">
          <mxGeometry x="45" y="90" width="10" height="220" as="geometry" />
        </mxCell>
        <mxCell id="LEBW6ZDdR1jyan6_hRrG-4" value=":Pharmacist" style="shape=umlLifeline;perimeter=lifelinePerimeter;whiteSpace=wrap;html=1;container=1;dropTarget=0;collapsible=0;recursiveResize=0;outlineConnect=0;portConstraint=eastwest;newEdgeStyle={&quot;curved&quot;:0,&quot;rounded&quot;:0};" vertex="1" parent="1">
          <mxGeometry x="300" y="60" width="100" height="360" as="geometry" />
        </mxCell>
        <mxCell id="LEBW6ZDdR1jyan6_hRrG-6" value="" style="html=1;points=[[0,0,0,0,5],[0,1,0,0,-5],[1,0,0,0,5],[1,1,0,0,-5]];perimeter=orthogonalPerimeter;outlineConnect=0;targetShapes=umlLifeline;portConstraint=eastwest;newEdgeStyle={&quot;curved&quot;:0,&quot;rounded&quot;:0};" vertex="1" parent="LEBW6ZDdR1jyan6_hRrG-4">
          <mxGeometry x="45" y="90" width="10" height="80" as="geometry" />
        </mxCell>
        <mxCell id="LEBW6ZDdR1jyan6_hRrG-10" value="" style="html=1;points=[[0,0,0,0,5],[0,1,0,0,-5],[1,0,0,0,5],[1,1,0,0,-5]];perimeter=orthogonalPerimeter;outlineConnect=0;targetShapes=umlLifeline;portConstraint=eastwest;newEdgeStyle={&quot;curved&quot;:0,&quot;rounded&quot;:0};" vertex="1" parent="LEBW6ZDdR1jyan6_hRrG-4">
          <mxGeometry x="45" y="180" width="10" height="130" as="geometry" />
        </mxCell>
        <mxCell id="LEBW6ZDdR1jyan6_hRrG-11" value="update prescription&lt;div&gt;details&lt;/div&gt;" style="html=1;align=left;spacingLeft=2;endArrow=block;rounded=0;edgeStyle=orthogonalEdgeStyle;curved=0;rounded=0;" edge="1" target="LEBW6ZDdR1jyan6_hRrG-10" parent="LEBW6ZDdR1jyan6_hRrG-4" source="LEBW6ZDdR1jyan6_hRrG-6">
          <mxGeometry relative="1" as="geometry">
            <mxPoint x="150" y="210" as="sourcePoint" />
            <Array as="points">
              <mxPoint x="140" y="130" />
              <mxPoint x="140" y="190" />
            </Array>
          </mxGeometry>
        </mxCell>
        <mxCell id="LEBW6ZDdR1jyan6_hRrG-5" value="send patient info and prescirption" style="html=1;verticalAlign=bottom;endArrow=block;curved=0;rounded=0;" edge="1" parent="1" source="LEBW6ZDdR1jyan6_hRrG-3">
          <mxGeometry width="80" relative="1" as="geometry">
            <mxPoint x="160" y="160" as="sourcePoint" />
            <mxPoint x="350" y="163" as="targetPoint" />
          </mxGeometry>
        </mxCell>
        <mxCell id="LEBW6ZDdR1jyan6_hRrG-7" value="Inventory" style="shape=umlLifeline;perimeter=lifelinePerimeter;whiteSpace=wrap;html=1;container=1;dropTarget=0;collapsible=0;recursiveResize=0;outlineConnect=0;portConstraint=eastwest;newEdgeStyle={&quot;curved&quot;:0,&quot;rounded&quot;:0};" vertex="1" parent="1">
          <mxGeometry x="610" y="60" width="100" height="370" as="geometry" />
        </mxCell>
        <mxCell id="LEBW6ZDdR1jyan6_hRrG-8" value="" style="html=1;points=[[0,0,0,0,5],[0,1,0,0,-5],[1,0,0,0,5],[1,1,0,0,-5]];perimeter=orthogonalPerimeter;outlineConnect=0;targetShapes=umlLifeline;portConstraint=eastwest;newEdgeStyle={&quot;curved&quot;:0,&quot;rounded&quot;:0};" vertex="1" parent="LEBW6ZDdR1jyan6_hRrG-7">
          <mxGeometry x="45" y="80" width="10" height="200" as="geometry" />
        </mxCell>
        <mxCell id="LEBW6ZDdR1jyan6_hRrG-9" value="check inventory" style="html=1;verticalAlign=bottom;endArrow=block;curved=0;rounded=0;" edge="1" parent="1" target="LEBW6ZDdR1jyan6_hRrG-7">
          <mxGeometry width="80" relative="1" as="geometry">
            <mxPoint x="360" y="270" as="sourcePoint" />
            <mxPoint x="440" y="180" as="targetPoint" />
          </mxGeometry>
        </mxCell>
        <mxCell id="LEBW6ZDdR1jyan6_hRrG-14" value="return if the drugs and equipment needed are in stock" style="html=1;verticalAlign=bottom;endArrow=open;dashed=1;endSize=8;curved=0;rounded=0;" edge="1" parent="1" source="LEBW6ZDdR1jyan6_hRrG-7">
          <mxGeometry x="-0.0339" relative="1" as="geometry">
            <mxPoint x="590" y="300" as="sourcePoint" />
            <mxPoint x="350" y="300" as="targetPoint" />
            <mxPoint x="1" as="offset" />
          </mxGeometry>
        </mxCell>
        <mxCell id="LEBW6ZDdR1jyan6_hRrG-17" value="take the drugs and equipment needed" style="html=1;verticalAlign=bottom;endArrow=block;curved=0;rounded=0;" edge="1" parent="1">
          <mxGeometry width="80" relative="1" as="geometry">
            <mxPoint x="349.5" y="320" as="sourcePoint" />
            <mxPoint x="659.5" y="320" as="targetPoint" />
          </mxGeometry>
        </mxCell>
        <mxCell id="LEBW6ZDdR1jyan6_hRrG-19" value="return updated prescription and drugs" style="html=1;verticalAlign=bottom;endArrow=open;dashed=1;endSize=8;curved=0;rounded=0;" edge="1" parent="1">
          <mxGeometry relative="1" as="geometry">
            <mxPoint x="350" y="340" as="sourcePoint" />
            <mxPoint x="149.5" y="340" as="targetPoint" />
          </mxGeometry>
        </mxCell>
      </root>
    </mxGraphModel>
  </diagram>
</mxfile>
